HIERARCHY
ROOT joint_Root
{
	OFFSET 0.0 0.0 0.0
	CHANNELS 6 Xposition Yposition Zposition Zrotation Xrotation Yrotation 
	JOINT Hips
	{
		OFFSET -17.1583 93.1646 452.98
		CHANNELS 6 Xposition Yposition Zposition Zrotation Xrotation Yrotation 
		JOINT Spine
		{
			OFFSET 15.7357 0.0 0.0
			CHANNELS 6 Xposition Yposition Zposition Zrotation Xrotation Yrotation 
			JOINT Chest
			{
				OFFSET 8.98455 -0.406207 0.0
				CHANNELS 6 Xposition Yposition Zposition Zrotation Xrotation Yrotation 
				JOINT Neck
				{
					OFFSET 16.3773 0.0 0.0
					CHANNELS 6 Xposition Yposition Zposition Zrotation Xrotation Yrotation 
					JOINT Head
					{
						OFFSET 6.45672 0.0 0.0
						CHANNELS 6 Xposition Yposition Zposition Zrotation Xrotation Yrotation 
						End Site
						{
							OFFSET 0.0 0.0 0.0
						}
					}
				}
				JOINT Shoulder_L
				{
					OFFSET 12.9942 -0.242716 4.98039
					CHANNELS 6 Xposition Yposition Zposition Zrotation Xrotation Yrotation 
					JOINT UpperArm_L
					{
						OFFSET 5.34809 0.0 0.0
						CHANNELS 6 Xposition Yposition Zposition Zrotation Xrotation Yrotation 
						JOINT LowerArm_L
						{
							OFFSET 24.3286 1.87007e-05 0.0
							CHANNELS 6 Xposition Yposition Zposition Zrotation Xrotation Yrotation 
							JOINT Hand_L
							{
								OFFSET 22.2916 0.0 0.0
								CHANNELS 6 Xposition Yposition Zposition Zrotation Xrotation Yrotation 
								End Site
								{
									OFFSET 0.0 0.0 0.0
								}
							}
						}
					}
				}
				JOINT Shoulder_R
				{
					OFFSET 12.9945 -0.242716 -4.98039
					CHANNELS 6 Xposition Yposition Zposition Zrotation Xrotation Yrotation 
					JOINT UpperArm_R
					{
						OFFSET -5.34813 0.0 0.0
						CHANNELS 6 Xposition Yposition Zposition Zrotation Xrotation Yrotation 
						JOINT LowerArm_R
						{
							OFFSET -24.3289 0.000322201 0.0
							CHANNELS 6 Xposition Yposition Zposition Zrotation Xrotation Yrotation 
							JOINT Hand_R
							{
								OFFSET -22.2915 -0.000108084 0.0
								CHANNELS 6 Xposition Yposition Zposition Zrotation Xrotation Yrotation 
								End Site
								{
									OFFSET 0.0 0.0 0.0
								}
							}
						}
					}
				}
			}
		}
		JOINT UpperLeg_L
		{
			OFFSET -2.19248 -6.46944 0.0
			CHANNELS 6 Xposition Yposition Zposition Zrotation Xrotation Yrotation 
			JOINT LowerLeg_L
			{
				OFFSET 39.0811 0.0 -1.23785e-05
				CHANNELS 6 Xposition Yposition Zposition Zrotation Xrotation Yrotation 
				JOINT Foot_L
				{
					OFFSET 40.9854 0.0 -1.26872e-05
					CHANNELS 6 Xposition Yposition Zposition Zrotation Xrotation Yrotation 
					JOINT Toes_L
					{
						OFFSET 11.7543 0.0 0.0
						CHANNELS 6 Xposition Yposition Zposition Zrotation Xrotation Yrotation 
						End Site
						{
							OFFSET 0.0 0.0 0.0
						}
					}
				}
			}
		}
		JOINT UpperLeg_R
		{
			OFFSET -2.19251 6.46944 0.0
			CHANNELS 6 Xposition Yposition Zposition Zrotation Xrotation Yrotation 
			JOINT LowerLeg_R
			{
				OFFSET -39.0811 -0.00228153 -0.0401928
				CHANNELS 6 Xposition Yposition Zposition Zrotation Xrotation Yrotation 
				JOINT Foot_R
				{
					OFFSET -40.9854 0.0 0.0
					CHANNELS 6 Xposition Yposition Zposition Zrotation Xrotation Yrotation 
					JOINT Toes_R
					{
						OFFSET -11.7543 0.0 0.0
						CHANNELS 6 Xposition Yposition Zposition Zrotation Xrotation Yrotation 
						End Site
						{
							OFFSET 0.0 0.0 0.0
						}
					}
				}
			}
		}
	}
}
MOTION
Frames:	6
Frame Time:	0.0333333
0.000000 0.000000 0.000000 0.000000 0.000000 -0.000000 -3.454250 93.025200 0.224605 86.177800 0.990720 2.485670 15.735700 0.000005 -0.000001 84.753800 86.645000 -90.465300 8.984550 -0.406207 -0.000000 -1.067140 -0.174172 -11.420000 16.377300 -0.000001 -0.000001 4.818410 2.492360 -9.954630 6.456720 -0.000001 -0.000000 -14.191700 10.141900 -16.149900 12.994200 -0.242716 4.980390 -93.354000 9.140540 -69.750000 5.348090 -0.000007 -0.000001 -58.578700 -3.103910 -0.103676 24.328600 0.000019 0.000005 14.795900 27.913700 -29.432500 22.291600 -0.000001 0.000005 3.096350 4.916340 9.050340 12.994500 -0.242716 -4.980390 93.564400 -6.349730 -60.610600 -5.348130 -0.000001 -0.000004 -59.942000 -61.985600 -102.936000 -24.328900 0.000322 -0.000009 -0.831129 -18.514000 -2.612720 -22.291500 -0.000108 -0.000004 37.919800 5.443180 -4.397700 -2.192480 -6.469440 -0.000000 -168.773000 -8.536730 0.551926 39.081100 -0.000007 -0.000012 -0.034388 0.121844 15.760400 40.985400 -0.000006 -0.000013 -2.095650 18.192100 -68.785000 11.754300 -0.000000 0.000003 -0.002361 0.200776 -8.430660 -2.192510 6.469440 -0.000001 179.671000 7.366410 -177.125000 -39.081100 -0.002282 -0.040193 -0.003557 0.034148 11.413300 -40.985400 0.000008 0.000006 -5.824170 11.969000 -66.177900 -11.754300 -0.000006 -0.000006 -0.008145 0.256879 -6.140610
0.000000 0.000000 0.000000 0.000000 0.000000 -0.000000 -3.467550 93.031600 0.217398 86.189400 0.953866 2.500450 15.735700 0.000005 -0.000001 84.811800 86.631200 -90.490700 8.984550 -0.406207 -0.000000 -1.039340 -0.173769 -11.354700 16.377300 -0.000001 -0.000001 4.915980 2.429110 -10.060800 6.456720 -0.000001 -0.000000 -14.152400 10.015000 -16.241100 12.994200 -0.242716 4.980390 -93.364600 9.171680 -69.754300 5.348090 -0.000007 -0.000001 -58.458800 -3.414510 0.083706 24.328600 0.000019 0.000005 14.673900 28.079200 -29.088400 22.291600 -0.000001 0.000005 2.995300 4.914190 9.093540 12.994500 -0.242716 -4.980390 93.564300 -6.338910 -60.569500 -5.348130 -0.000001 -0.000004 -59.454200 -61.926800 -102.488000 -24.328900 0.000322 -0.000009 -0.804760 -18.646300 -2.512540 -22.291500 -0.000108 -0.000004 37.637700 5.445080 -4.464700 -2.192480 -6.469440 -0.000000 -168.776000 -8.515640 0.626529 39.081100 -0.000007 -0.000012 -0.032745 0.116704 15.673000 40.985400 -0.000006 -0.000013 -2.121030 18.171000 -68.804800 11.754300 -0.000000 0.000003 -0.002410 0.201363 -8.406780 -2.192510 6.469440 -0.000001 179.673000 7.251690 -177.096000 -39.081100 -0.002282 -0.040193 -0.003902 0.035970 11.378800 -40.985400 0.000008 0.000006 -5.917040 11.893900 -66.151800 -11.754300 -0.000006 -0.000006 -0.008023 0.255886 -6.181170
0.000000 0.000000 0.000000 0.000000 0.000000 -0.000000 -3.485210 93.019800 0.212489 86.197200 0.952224 2.494820 15.735700 0.000005 -0.000001 84.740200 86.614900 -90.389700 8.984550 -0.406207 -0.000000 -1.008480 -0.188923 -11.295700 16.377300 -0.000001 -0.000001 4.963080 2.342950 -9.993290 6.456720 -0.000001 -0.000000 -14.048600 9.906350 -16.342300 12.994200 -0.242716 4.980390 -93.397700 9.246860 -69.722000 5.348090 -0.000007 -0.000001 -58.334200 -3.656300 0.289746 24.328600 0.000019 0.000005 14.524700 28.083200 -28.826000 22.291600 -0.000001 0.000005 2.955960 4.911540 9.146970 12.994500 -0.242716 -4.980390 93.561300 -6.326390 -60.542200 -5.348130 -0.000001 -0.000004 -59.287800 -61.832800 -102.197000 -24.328900 0.000322 -0.000009 -0.850648 -18.746000 -2.642200 -22.291500 -0.000108 -0.000004 37.516000 5.444920 -4.459250 -2.192480 -6.469440 -0.000000 -168.771000 -8.583390 0.566377 39.081100 -0.000007 -0.000012 -0.033203 0.117598 15.766200 40.985400 -0.000006 -0.000013 -2.107230 18.220800 -68.780100 11.754300 -0.000000 0.000003 -0.002150 0.198205 -8.535240 -2.192510 6.469440 -0.000001 179.711000 7.241390 -177.193000 -39.081100 -0.002282 -0.040193 -0.002368 0.027916 11.548200 -40.985400 0.000008 0.000006 -5.644420 11.818500 -66.314200 -11.754300 -0.000006 -0.000006 -0.008087 0.256407 -6.159890
0.000000 0.000000 0.000000 0.000000 0.000000 -0.000000 -3.491500 93.027700 0.196618 86.231000 0.968859 2.465750 15.735700 0.000005 -0.000001 84.656000 86.596200 -90.270300 8.984550 -0.406207 -0.000000 -0.973398 -0.206694 -11.225400 16.377300 -0.000001 -0.000001 5.080270 2.222530 -9.971270 6.456720 -0.000001 -0.000000 -14.107900 9.743460 -16.381200 12.994200 -0.242716 4.980390 -93.432000 9.307270 -69.654300 5.348090 -0.000007 -0.000001 -58.309600 -3.837450 0.486478 24.328600 0.000019 0.000005 14.411900 28.209900 -28.529900 22.291600 -0.000001 0.000005 2.996730 4.919460 8.987540 12.994500 -0.242716 -4.980390 93.535300 -6.286050 -60.566000 -5.348130 -0.000001 -0.000004 -59.268500 -61.820700 -102.115000 -24.328900 0.000322 -0.000009 -0.873497 -18.825400 -2.702150 -22.291500 -0.000108 -0.000004 37.335200 5.444380 -4.439810 -2.192480 -6.469440 -0.000000 -168.783000 -8.681830 0.577788 39.081100 -0.000007 -0.000012 -0.033661 0.120062 15.661500 40.985400 -0.000006 -0.000013 -2.126490 18.325100 -68.738800 11.754300 -0.000000 0.000003 -0.002205 0.198884 -8.507640 -2.192510 6.469440 -0.000001 179.685000 7.195020 -177.214000 -39.081100 -0.002282 -0.040193 -0.002311 0.027716 11.516800 -40.985400 0.000008 0.000006 -5.678780 11.816000 -66.293700 -11.754300 -0.000006 -0.000006 -0.007918 0.255032 -6.216060
0.000000 0.000000 0.000000 0.000000 0.000000 -0.000000 -3.494070 93.025300 0.194730 86.254900 1.003660 2.482870 15.735700 0.000005 -0.000001 84.681600 86.563400 -90.252800 8.984550 -0.406207 -0.000000 -0.908485 -0.216183 -11.139100 16.377300 -0.000001 -0.000001 5.130190 2.096730 -9.886500 6.456720 -0.000001 -0.000000 -14.010800 9.544710 -16.442200 12.994200 -0.242716 4.980390 -93.450500 9.344670 -69.628400 5.348090 -0.000007 -0.000001 -58.339400 -3.990620 0.714219 24.328600 0.000019 0.000005 14.330200 28.322700 -28.300000 22.291600 -0.000001 0.000005 2.859490 4.926230 8.850580 12.994500 -0.242716 -4.980390 93.526500 -6.258990 -60.521900 -5.348130 -0.000001 -0.000004 -59.345000 -61.700600 -102.104000 -24.328900 0.000322 -0.000009 -0.897434 -18.693200 -2.795070 -22.291500 -0.000108 -0.000004 37.180900 5.436100 -4.149980 -2.192480 -6.469440 -0.000000 -168.834000 -8.535120 0.574267 39.081100 -0.000007 -0.000012 -0.033011 0.117550 15.686100 40.985400 -0.000006 -0.000013 -2.128800 18.210000 -68.785300 11.754300 -0.000000 0.000003 -0.002247 0.199401 -8.486600 -2.192510 6.469440 -0.000001 179.682000 7.160340 -177.238000 -39.081100 -0.002282 -0.040193 -0.001791 0.024960 11.606900 -40.985400 0.000008 0.000006 -5.639400 11.715800 -66.394400 -11.754300 -0.000006 -0.000006 -0.008223 0.257512 -6.114780
0.000000 0.000000 0.000000 0.000000 0.000000 -0.000000 -3.486220 93.033300 0.176843 86.283300 1.035770 2.356460 15.735700 0.000005 -0.000001 84.462200 86.576800 -89.978300 8.984550 -0.406207 -0.000000 -0.939192 -0.242472 -11.029400 16.377300 -0.000001 -0.000001 5.256640 2.009060 -9.815340 6.456720 -0.000001 -0.000000 -13.994000 9.473850 -16.486700 12.994200 -0.242716 4.980390 -93.475100 9.393040 -69.590800 5.348090 -0.000007 -0.000001 -58.417600 -4.097100 0.946106 24.328600 0.000019 0.000005 14.231800 28.391500 -28.075600 22.291600 -0.000001 0.000005 2.810150 4.931640 8.740580 12.994500 -0.242716 -4.980390 93.524600 -6.251990 -60.507500 -5.348130 -0.000001 -0.000004 -59.063900 -61.606200 -101.792000 -24.328900 0.000322 -0.000009 -0.900719 -18.817000 -2.787520 -22.291500 -0.000108 -0.000004 36.943300 5.437460 -4.197060 -2.192480 -6.469440 -0.000000 -168.863000 -8.712220 0.463128 39.081100 -0.000007 -0.000012 -0.034170 0.122341 15.604900 40.985400 -0.000006 -0.000013 -2.125730 18.358100 -68.687800 11.754300 -0.000000 0.000003 -0.002275 0.199735 -8.473020 -2.192510 6.469440 -0.000001 179.682000 7.073420 -177.348000 -39.081100 -0.002282 -0.040193 -0.001175 0.022087 11.544700 -40.985400 0.000008 0.000006 -5.607990 11.617100 -66.372900 -11.754300 -0.000006 -0.000006 -0.007888 0.254782 -6.226260
